# xmcd
#
# Track frame offsets: 
#        150
#        20172
#        48307
#        68456
#        93031
#        111055
#        131019
#        153869
#        172415
#        193057
#        210564
#        229875
#        250596
#        271566
#        290135
#        307823
#
# Disc length: 4318 seconds
#
# Revision: 19
# Processed by: cddbd v1.5.1PL0 Copyright (c) Steve Scherf et al.
# Submitted via: ExactAudioCopy v0.95a5
#
DISCID=d810dc10
DTITLE=Jennifer Lopez - On the 6
DYEAR=1999
DGENRE=Latin Pop
TTITLE0=If You Had My Love
TTITLE1=Should've Never
TTITLE2=Too Late
TTITLE3=Feelin' So Good
TTITLE4=Let's Get Loud
TTITLE5=Could This Be Love
TTITLE6=No Me Ames (Tropical Remix)
TTITLE7=Waiting for Tonight
TTITLE8=Open off My Love
TTITLE9=Promise Me You'll Try
TTITLE10=It's Not That Serious
TTITLE11=Talk about Us
TTITLE12=No Me Ames (Ballad Version)
TTITLE13=Una Noche Mas
TTITLE14=Baila
TTITLE15=Theme from Mahogany (Do You Know Where You're Going To)
EXTD=YEAR: 2002 ID3G: 13
EXTT0=
EXTT1=
EXTT2=
EXTT3=
EXTT4=
EXTT5=
EXTT6=
EXTT7=
EXTT8=
EXTT9=
EXTT10=
EXTT11=
EXTT12=
EXTT13=
EXTT14=
EXTT15=
PLAYORDER=
